<svg xmlns:ns0="http://www.w3.org/2000/svg" xmlns="http://www.w3.org/2000/svg" version="1.1" width="958" height="940" viewBox="0 0 958 940"><ns0:path style="opacity:0.004" fill="#000103" d="M 612.5,-0.5 C 613.5,-0.5 614.5,-0.5 615.5,-0.5C 614.5,0.833333 613.5,0.833333 612.5,-0.5 Z" /><ns0:path style="opacity:0.976" fill="#e8ecf9" d="M 623.5,-0.5 C 626.5,-0.5 629.5,-0.5 632.5,-0.5C 630.946,0.894646 631.279,1.56131 633.5,1.5C 634.713,1.25284 635.38,0.586173 635.5,-0.5C 698.5,-0.5 761.5,-0.5 824.5,-0.5C 824.833,2.16667 825.167,2.16667 825.5,-0.5C 826.5,-0.5 827.5,-0.5 828.5,-0.5C 830.607,0.468218 832.941,0.801552 835.5,0.5C 836.5,0.5 837.5,0.5 838.5,0.5C 838.833,1.83333 839.167,1.83333 839.5,0.5C 839.833,0.5 840.167,0.5 840.5,0.5C 840.5,1.16667 840.833,1.5 841.5,1.5C 841.842,2.33825 842.508,2.67158 843.5,2.5C 844.833,2.5 846.167,2.5 847.5,2.5C 851.5,2.5 855.5,2.5 859.5,2.5C 859.833,3.5 860.5,4.16667 861.5,4.5C 870.979,3.93979 880.312,4.77312 889.5,7C 903.061,7.34275 916.394,8.84275 929.5,11.5C 929.833,11.5 930.167,11.5 930.5,11.5C 930.866,12.6946 931.699,13.3613 933,13.5C 936.26,11.8151 938.927,12.4817 941,15.5C 942.049,14.4829 943.216,14.3162 944.5,15C 949.256,17.2695 953.59,20.1028 957.5,23.5C 957.5,61.5 957.5,99.5 957.5,137.5C 956.167,137.833 956.167,138.167 957.5,138.5C 957.5,139.167 957.5,139.833 957.5,140.5C 955.333,160.974 953.166,181.641 951,202.5C 949.309,218.732 948.309,235.066 948,251.5C 947.667,251.167 947.333,250.833 947,250.5C 945.807,263.457 943.974,276.29 941.5,289C 941.833,289.333 942.167,289.667 942.5,290C 941.39,292.134 940.39,294.3 939.5,296.5C 939.863,297.183 940.196,297.85 940.5,298.5C 940.5,298.833 940.5,299.167 940.5,299.5C 939.715,301.374 939.048,303.374 938.5,305.5C 938.5,306.167 938.5,306.833 938.5,307.5C 935.57,324.058 931.57,340.558 926.5,357C 927.458,358.147 927.125,359.147 925.5,360C 927.878,360.974 927.544,361.641 924.5,362C 925.167,362.333 925.833,362.667 926.5,363C 923.855,363.591 923.189,364.925 924.5,367C 923.391,369.047 922.724,371.213 922.5,373.5C 922.5,374.167 922.5,374.833 922.5,375.5C 918.152,390.532 914.152,406.198 910.5,422.5C 909.99,424.088 908.99,425.255 907.5,426C 907.728,426.399 908.062,426.565 908.5,426.5C 908.5,427.167 908.5,427.833 908.5,428.5C 908.607,430.379 908.107,430.712 907,429.5C 905.304,436.956 903.304,444.289 901,451.5C 899.587,454.661 897.92,457.661 896,460.5C 895.667,460.167 895.333,459.833 895,459.5C 894.51,460.793 894.343,462.127 894.5,463.5C 893.662,463.842 893.328,464.508 893.5,465.5C 891.674,469.97 890.007,474.637 888.5,479.5C 887.667,480.5 886.833,481.5 886,482.5C 885.149,490.72 882.149,498.053 877,504.5C 876.047,507.432 875.547,510.432 875.5,513.5C 874.5,513.833 873.833,514.5 873.5,515.5C 872.833,515.5 872.5,515.833 872.5,516.5C 871.655,517.671 870.989,519.005 870.5,520.5C 870.5,520.833 870.5,521.167 870.5,521.5C 862.821,536.097 854.488,552.097 845.5,569.5C 844.599,570.29 843.932,571.29 843.5,572.5C 843.5,572.833 843.5,573.167 843.5,573.5C 842.5,573.833 841.833,574.5 841.5,575.5C 840.833,575.5 840.5,575.833 840.5,576.5C 840.167,577.167 839.833,577.833 839.5,578.5C 836.818,580.53 835.151,583.197 834.5,586.5C 832.738,587.262 831.738,588.596 831.5,590.5C 831.5,591.167 831.167,591.5 830.5,591.5C 829.752,593.061 828.586,594.395 827,595.5C 826.023,597.74 825.523,600.073 825.5,602.5C 823.09,602.921 821.257,604.254 820,606.5C 819.07,609.362 817.403,611.695 815,613.5C 814.667,614.833 814.333,616.167 814,617.5C 813.667,617.167 813.333,616.833 813,616.5C 811.991,618.025 811.491,619.692 811.5,621.5C 810.833,621.833 810.167,622.167 809.5,622.5C 808.833,622.5 808.5,622.833 808.5,623.5C 808.5,624.167 808.5,624.833 808.5,625.5C 807.657,627.173 806.324,628.34 804.5,629C 805.056,629.383 805.389,629.883 805.5,630.5C 804.504,630.414 803.671,630.748 803,631.5C 801.632,634.186 800.299,636.853 799,639.5C 797.434,638.939 796.101,639.606 795,641.5C 791.877,646.097 789.043,650.763 786.5,655.5C 786.167,654.167 785.833,654.167 785.5,655.5C 784.5,655.833 783.833,656.5 783.5,657.5C 782.833,657.5 782.5,657.833 782.5,658.5C 781.698,659.952 781.198,661.618 781,663.5C 780.667,662.833 780.333,662.167 780,661.5C 778.668,663.66 777.168,665.66 775.5,667.5C 774.5,667.833 773.833,668.5 773.5,669.5C 771.016,671.8 769.016,674.467 767.5,677.5C 766.833,677.5 766.5,677.833 766.5,678.5C 763.5,680.833 760.833,683.5 758.5,686.5C 757.833,686.5 757.5,686.833 757.5,687.5C 754.833,689.5 752.5,691.833 750.5,694.5C 746.473,697.86 742.806,701.527 739.5,705.5C 739.167,704.167 738.833,704.167 738.5,705.5C 735.821,705.525 734.488,706.858 734.5,709.5C 733.761,709.369 733.094,709.536 732.5,710C 731.252,711.4 730.252,712.9 729.5,714.5C 728.167,715.167 727.167,716.167 726.5,717.5C 722.243,720.251 718.41,723.584 715,727.5C 714.586,727.043 714.086,726.709 713.5,726.5C 712.476,727.852 711.476,729.185 710.5,730.5C 709.833,730.5 709.5,730.833 709.5,731.5C 708.5,731.833 707.833,732.5 707.5,733.5C 706.833,733.5 706.5,733.833 706.5,734.5C 694.301,744.368 682.301,753.701 670.5,762.5C 670.167,762.5 669.833,762.5 669.5,762.5C 668.21,763.058 667.377,764.058 667,765.5C 666.667,765.167 666.333,764.833 666,764.5C 660.158,769.544 653.991,773.877 647.5,777.5C 645.574,778.242 643.741,779.242 642,780.5C 640.984,779.366 640.317,779.699 640,781.5C 638.187,780.391 637.354,781.058 637.5,783.5C 633.714,783.47 631.047,785.137 629.5,788.5C 624.777,789.688 620.111,791.188 615.5,793C 614.167,793.667 614.167,794.333 615.5,795C 611.533,795.483 607.866,796.816 604.5,799C 604.833,799.333 605.167,799.667 605.5,800C 600.7,801.989 596.034,804.155 591.5,806.5C 590.833,805.167 590.167,805.167 589.5,806.5C 587.097,806.393 585.264,807.393 584,809.5C 583.586,809.043 583.086,808.709 582.5,808.5C 581.833,809.5 581.167,810.5 580.5,811.5C 579.554,811.013 578.554,810.68 577.5,810.5C 576.695,811.938 575.028,812.938 572.5,813.5C 571.833,813.5 571.5,813.833 571.5,814.5C 570.85,814.196 570.183,813.863 569.5,813.5C 565.705,815.231 562.038,817.231 558.5,819.5C 555.568,818.219 553.068,818.886 551,821.5C 550.586,821.043 550.086,820.709 549.5,820.5C 548.833,821.5 548.167,822.5 547.5,823.5C 542.358,821.937 538.192,823.27 535,827.5C 534.309,825.109 533.309,825.109 532,827.5C 530.251,826.701 528.918,827.368 528,829.5C 526.16,828.167 525.66,828.334 526.5,830C 520.16,830.601 513.826,831.267 507.5,832C 506.956,832.717 506.289,833.217 505.5,833.5C 502.904,834.265 500.237,834.599 497.5,834.5C 483.831,836.728 470.164,839.228 456.5,842C 442.833,842.333 429.167,842.667 415.5,843C 412.635,843.183 409.969,843.683 407.5,844.5C 407.167,844.5 406.833,844.5 406.5,844.5C 390.301,842.333 372.968,840.833 354.5,840C 353.667,839.167 352.833,838.333 352,837.5C 346.333,838.167 340.667,838.833 335,839.5C 332.931,838.736 330.764,838.236 328.5,838C 329.167,837.667 329.833,837.333 330.5,837C 326.627,836.73 322.794,836.23 319,835.5C 318.228,835.645 317.561,835.978 317,836.5C 315.275,835.536 313.441,834.869 311.5,834.5C 310.5,833.167 309.5,833.167 308.5,834.5C 304.479,833.265 299.812,831.931 294.5,830.5C 292.833,830.5 291.167,830.5 289.5,830.5C 289.158,829.662 288.492,829.328 287.5,829.5C 282.116,827.651 276.449,826.484 270.5,826C 267.351,823.771 264.017,822.938 260.5,823.5C 257.904,820.766 254.904,820.1 251.5,821.5C 243.56,817.916 235.727,814.25 228,810.5C 218.295,807.657 208.961,803.324 200,797.5C 199.667,797.833 199.333,798.167 199,798.5C 197.903,796.947 196.57,795.614 195,794.5C 194.617,795.056 194.117,795.389 193.5,795.5C 193.5,794.833 193.167,794.5 192.5,794.5C 188.712,792.001 184.879,789.335 181,786.5C 180.667,786.833 180.333,787.167 180,787.5C 177.044,784.773 173.544,783.273 169.5,783C 174.414,782.156 174.08,781.322 168.5,780.5C 168.167,779.5 167.5,778.833 166.5,778.5C 165.434,777.308 164.601,777.641 164,779.5C 163.536,778.906 163.369,778.239 163.5,777.5C 163.5,776.833 163.167,776.5 162.5,776.5C 159.106,774.618 156.106,772.118 153.5,769C 151.512,768.062 149.512,767.228 147.5,766.5C 147.167,765.167 146.833,765.167 146.5,766.5C 143.365,767.774 142.365,769.94 143.5,773C 142.906,773.464 142.239,773.631 141.5,773.5C 140.5,773.833 139.833,774.5 139.5,775.5C 138.833,775.5 138.5,775.833 138.5,776.5C 138.5,777.167 138.167,777.5 137.5,777.5C 135.142,780.546 133.142,783.879 131.5,787.5C 128.836,789.484 127.169,792.151 126.5,795.5C 125.5,796.833 124.5,798.167 123.5,799.5C 122.662,799.842 122.328,800.508 122.5,801.5C 120.692,804.887 118.692,808.22 116.5,811.5C 116.5,812.167 116.5,812.833 116.5,813.5C 114.194,816.964 112.194,820.631 110.5,824.5C 110.167,825.167 109.833,825.833 109.5,826.5C 110.054,828.957 109.388,831.291 107.5,833.5C 106.662,833.842 106.328,834.508 106.5,835.5C 104.136,836.761 103.469,838.594 104.5,841C 104.095,841.945 103.428,842.612 102.5,843C 103.167,843.333 103.833,843.667 104.5,844C 103.376,844.249 102.376,844.749 101.5,845.5C 99.1784,851.852 96.3451,857.185 93,861.5C 93.4187,865.924 91.9187,869.757 88.5,873C 89.2583,874.364 88.7583,875.531 87,876.5C 83.9427,884.455 80.4427,892.121 76.5,899.5C 76.5,900.167 76.5,900.833 76.5,901.5C 75.6618,901.842 75.3284,902.508 75.5,903.5C 74.8333,903.5 74.5,903.833 74.5,904.5C 73.0169,906.924 71.8502,909.591 71,912.5C 69.4987,920.176 67.9987,927.843 66.5,935.5C 65.8333,935.5 65.5,935.833 65.5,936.5C 64.1667,936.833 64.1667,937.167 65.5,937.5C 65.5,938.167 65.5,938.833 65.5,939.5C 65.1667,939.5 64.8333,939.5 64.5,939.5C 64.1667,938.167 63.8333,938.167 63.5,939.5C 42.1667,939.5 20.8333,939.5 -0.5,939.5C -0.5,934.167 -0.5,928.833 -0.5,923.5C 0.833333,922.5 0.833333,921.5 -0.5,920.5C -0.5,920.167 -0.5,919.833 -0.5,919.5C 0.396953,918.402 1.23029,918.402 2,919.5C 2.30945,918.234 2.80945,917.067 3.5,916C 3.01383,913.272 3.6805,910.605 5.5,908C 4.94404,907.617 4.61071,907.117 4.5,906.5C 5.5,905.5 6.5,904.5 7.5,903.5C 7.5,903.167 7.5,902.833 7.5,902.5C 9.24927,899.801 10.9159,896.967 12.5,894C 12.3552,893.228 12.0219,892.561 11.5,892C 13.1066,890.951 13.7733,889.451 13.5,887.5C 14.5,887.5 15.5,887.5 16.5,887.5C 16.8333,885.5 17.1667,883.5 17.5,881.5C 17.5,880.833 17.5,880.167 17.5,879.5C 18.1667,878.833 18.8333,878.167 19.5,877.5C 20.8451,873.801 22.5118,870.134 24.5,866.5C 24.2907,865.914 23.9574,865.414 23.5,865C 25.2843,862.604 26.951,860.104 28.5,857.5C 28.5569,856.391 28.8902,855.391 29.5,854.5C 30.4767,852.179 31.4767,849.846 32.5,847.5C 33.1667,847.5 33.5,847.167 33.5,846.5C 34.8686,844.309 35.8686,841.975 36.5,839.5C 37.1667,839.5 37.5,839.167 37.5,838.5C 38.8333,838.167 38.8333,837.833 37.5,837.5C 38.1667,836.833 38.8333,836.167 39.5,835.5C 39.5,834.833 39.5,834.167 39.5,833.5C 40.705,830.766 42.205,828.099 44,825.5C 44.3333,825.833 44.6667,826.167 45,826.5C 46.0833,823.733 47.25,821.067 48.5,818.5C 49.9744,817.564 50.9744,816.23 51.5,814.5C 52.404,813.791 52.7373,812.791 52.5,811.5C 53.3382,811.158 53.6716,810.492 53.5,809.5C 54.1499,809.196 54.8165,808.863 55.5,808.5C 58.0535,804.412 59.7202,800.079 60.5,795.5C 61.5,795.5 62.5,795.5 63.5,795.5C 63.6901,791.711 65.3568,788.711 68.5,786.5C 67.1451,785.325 67.3117,784.325 69,783.5C 69.3333,783.833 69.6667,784.167 70,784.5C 73.7972,776.365 78.7972,769.032 85,762.5C 88.953,755.985 93.453,749.652 98.5,743.5C 99.2458,742.264 99.5792,740.93 99.5,739.5C 100.167,739.5 100.5,739.167 100.5,738.5C 101.167,738.5 101.5,738.167 101.5,737.5C 102.167,737.5 102.5,737.167 102.5,736.5C 103.962,735.542 105.295,734.376 106.5,733C 99.7519,726.85 93.5852,720.684 88,714.5C 86.4939,709.993 83.8272,706.327 80,703.5C 79.3828,702.551 79.5494,701.718 80.5,701C 77.016,696.549 73.1827,692.382 69,688.5C 64.3095,679.768 59.1429,671.434 53.5,663.5C 49.4122,653.956 45.0789,644.622 40.5,635.5C 41.6613,633.776 41.4947,632.11 40,630.5C 39.6667,630.833 39.3333,631.167 39,631.5C 37.5462,628.929 36.3795,626.262 35.5,623.5C 36.7152,622.221 36.3818,621.221 34.5,620.5C 34.5,619.833 34.5,619.167 34.5,618.5C 32.9856,613.455 30.9856,608.621 28.5,604C 29.3295,602.535 29.4962,601.035 29,599.5C 28.6667,599.833 28.3333,600.167 28,600.5C 27.7761,596.603 26.7761,592.936 25,589.5C 24.4394,580.108 22.6061,571.108 19.5,562.5C 19.1667,561.833 18.8333,561.167 18.5,560.5C 18.5,559.833 18.1667,559.5 17.5,559.5C 18.008,556.611 18.6747,553.778 19.5,551C 18.1367,549.055 17.3034,546.888 17,544.5C 16.0112,517.447 16.5112,490.447 18.5,463.5C 18.5,462.167 18.5,460.833 18.5,459.5C 19.5783,457.461 20.5783,455.294 21.5,453C 20.3977,450.599 20.231,448.099 21,445.5C 22.4561,440.921 23.9561,436.421 25.5,432C 24.5939,430.301 24.2606,428.467 24.5,426.5C 24.8333,425.833 25.1667,425.167 25.5,424.5C 26.6408,420.687 27.9741,416.854 29.5,413C 28.9186,412.107 28.5852,411.107 28.5,410C 31.0129,404.108 32.5129,397.941 33,391.5C 34.6284,388.409 36.1284,385.243 37.5,382C 36.8333,381.667 36.1667,381.333 35.5,381C 36.9733,380.29 37.6399,379.124 37.5,377.5C 38.3382,377.158 38.6716,376.492 38.5,375.5C 40.3964,373.163 41.7297,370.496 42.5,367.5C 46.5822,354.325 52.2488,340.991 59.5,327.5C 59.5,327.167 59.5,326.833 59.5,326.5C 62.4233,322.187 64.7566,317.52 66.5,312.5C 67.131,309.592 68.4643,307.592 70.5,306.5C 71.1667,306.5 71.5,306.167 71.5,305.5C 74.4053,303.244 76.072,300.244 76.5,296.5C 77.2485,294.668 78.2485,293.001 79.5,291.5C 80.3094,290.531 81.3094,289.698 82.5,289C 82.2716,288.601 81.9382,288.435 81.5,288.5C 81.8333,287.833 82.1667,287.167 82.5,286.5C 83.7736,285.811 83.7736,284.977 82.5,284C 83.1201,281.898 84.1201,281.065 85.5,281.5C 86.3382,281.158 86.6716,280.492 86.5,279.5C 89.8799,276.386 92.5466,272.72 94.5,268.5C 94.5,268.167 94.5,267.833 94.5,267.5C 95.9063,267.027 96.573,266.027 96.5,264.5C 98.2785,263.33 99.2785,261.664 99.5,259.5C 100.167,259.5 100.5,259.167 100.5,258.5C 101.492,258.672 102.158,258.338 102.5,257.5C 102.5,257.167 102.5,256.833 102.5,256.5C 107.237,252.409 110.903,247.409 113.5,241.5C 114.5,241.167 115.167,240.5 115.5,239.5C 120.719,234.347 125.385,228.68 129.5,222.5C 129.5,222.167 129.5,221.833 129.5,221.5C 131.112,219.667 132.778,218 134.5,216.5C 135.167,216.5 135.5,216.167 135.5,215.5C 137.587,214.415 138.92,212.749 139.5,210.5C 139.833,209.833 140.167,209.167 140.5,208.5C 145.592,203.583 150.926,198.75 156.5,194C 155.549,193.282 155.383,192.449 156,191.5C 156.718,192.451 157.551,192.617 158.5,192C 160.396,189.932 162.396,188.099 164.5,186.5C 165.5,186.167 166.167,185.5 166.5,184.5C 167.5,184.167 168.167,183.5 168.5,182.5C 172.332,178.836 176.332,175.336 180.5,172C 180.167,171.667 179.833,171.333 179.5,171C 181.679,170.558 182.345,169.558 181.5,168C 183.554,168.583 185.554,168.083 187.5,166.5C 189.269,164.443 191.269,162.61 193.5,161C 197.608,157.776 201.941,153.942 206.5,149.5C 207.167,149.5 207.5,149.167 207.5,148.5C 210.452,145.065 214.118,142.565 218.5,141C 217.5,140.667 216.5,140.333 215.5,140C 219.524,139.162 222.69,136.995 225,133.5C 225.333,133.833 225.667,134.167 226,134.5C 228.257,132.659 230.757,131.326 233.5,130.5C 233.281,129.325 233.614,128.325 234.5,127.5C 236.002,126.917 237.335,126.084 238.5,125C 238.167,124.667 237.833,124.333 237.5,124C 239.5,123.333 241.5,122.667 243.5,122C 246.18,119.89 248.846,118.057 251.5,116.5C 259.018,112.493 265.685,108.16 271.5,103.5C 272.117,103.611 272.617,103.944 273,104.5C 273.5,103.333 274.333,102.5 275.5,102C 275.167,101.667 274.833,101.333 274.5,101C 275.766,100.691 276.933,100.191 278,99.5C 279.107,100.712 279.607,100.379 279.5,98.5C 287.26,96.5227 294.093,92.856 300,87.5C 300.333,87.8333 300.667,88.1667 301,88.5C 306.305,86.1821 311.472,83.6821 316.5,81C 314.833,80.6667 313.167,80.3333 311.5,80C 319.913,78.968 327.913,76.468 335.5,72.5C 336.517,69.972 337.684,69.972 339,72.5C 343.805,69.681 348.471,66.681 353,63.5C 353.414,63.9574 353.914,64.2907 354.5,64.5C 356.336,63.9724 358.003,63.3058 359.5,62.5C 360.71,62.0679 361.71,61.4013 362.5,60.5C 369.895,58.6264 376.895,55.9598 383.5,52.5C 384.167,52.5 384.833,52.5 385.5,52.5C 390.051,49.9558 394.718,47.7891 399.5,46C 405.541,44.3004 411.541,42.967 417.5,42C 415.205,41.0164 415.539,40.1831 418.5,39.5C 421.28,40.963 423.447,40.2963 425,37.5C 426.788,38.3005 428.455,38.6338 430,38.5C 432.058,37.8905 432.891,36.8905 432.5,35.5C 433.192,36.0253 433.692,36.6919 434,37.5C 437.329,36.1147 440.496,34.4481 443.5,32.5C 444.687,33.6527 445.687,33.6527 446.5,32.5C 449.455,32.6773 452.455,32.344 455.5,31.5C 455.5,30.5 455.5,29.5 455.5,28.5C 464.045,27.5507 472.045,25.884 479.5,23.5C 481.43,22.9642 483.597,22.9642 486,23.5C 487.955,22.5467 489.622,21.2134 491,19.5C 493.093,20.2461 495.093,20.5795 497,20.5C 499.561,19.8167 502.061,18.8167 504.5,17.5C 504.833,17.5 505.167,17.5 505.5,17.5C 512.48,15.7627 519.814,14.096 527.5,12.5C 529.235,13.057 530.902,13.3903 532.5,13.5C 539.164,11.4899 545.164,9.48989 550.5,7.5C 552.044,7.78961 553.377,8.45627 554.5,9.5C 554.489,8.55855 554.989,7.89188 556,7.5C 557.011,7.89188 557.511,8.55855 557.5,9.5C 558.893,8.13692 560.559,7.30359 562.5,7C 567.167,6.66667 571.833,6.33333 576.5,6C 577.5,5.5 578.5,5 579.5,4.5C 584.78,5.61782 590.113,5.78449 595.5,5C 590.833,4.66667 586.167,4.33333 581.5,4C 595.949,5.13317 609.949,3.63317 623.5,-0.5 Z" /><ns0:path style="opacity:0.004" fill="#000000" d="M 835.5,0.5 C 835.5,0.166667 835.5,-0.166667 835.5,-0.5C 847.5,-0.5 859.5,-0.5 871.5,-0.5C 863.281,-0.154091 855.281,0.845909 847.5,2.5C 846.167,2.5 844.833,2.5 843.5,2.5C 843.158,1.66175 842.492,1.32842 841.5,1.5C 840.833,1.5 840.5,1.16667 840.5,0.5C 840.167,0.5 839.833,0.5 839.5,0.5C 839.167,0.5 838.833,0.5 838.5,0.5C 837.5,0.5 836.5,0.5 835.5,0.5 Z" /><ns0:path style="opacity:0.004" fill="#000100" d="M 937.5,-0.5 C 938.5,-0.5 939.5,-0.5 940.5,-0.5C 939.74,1.98452 938.74,1.98452 937.5,-0.5 Z" /><ns0:path style="opacity:0.004" fill="#000100" d="M 931.5,1.5 C 934.137,3.15382 933.803,3.65382 930.5,3C 931.056,2.61742 931.389,2.11742 931.5,1.5 Z" /><ns0:path style="opacity:0.004" fill="#000100" d="M 859.5,2.5 C 863.514,2.33449 867.514,2.50115 871.5,3C 867.975,3.17871 864.641,3.67871 861.5,4.5C 860.5,4.16667 859.833,3.5 859.5,2.5 Z" /><ns0:path style="opacity:0.004" fill="#000000" d="M 937.5,5.5 C 938.5,5.5 939.5,5.5 940.5,5.5C 940.762,6.97782 940.429,8.31116 939.5,9.5C 937.889,8.67975 937.222,7.34642 937.5,5.5 Z" /><ns0:path style="opacity:0.005" fill="#010000" d="M 930.5,11.5 C 930.167,11.5 929.833,11.5 929.5,11.5C 929.5,10.5 929.5,9.5 929.5,8.5C 931.665,8.11589 933.332,8.78256 934.5,10.5C 933.311,11.4287 931.978,11.762 930.5,11.5 Z" /><ns0:path style="opacity:0.004" fill="#000000" d="M 479.5,15.5 C 480.601,14.4017 481.934,14.235 483.5,15C 482.207,15.49 480.873,15.6567 479.5,15.5 Z" /><ns0:path style="opacity:0.004" fill="#000000" d="M 490.5,14.5 C 491.833,15.1667 491.833,15.1667 490.5,14.5 Z" /><ns0:path style="opacity:0.004" fill="#000100" d="M 494.5,15.5 C 495.601,14.4017 496.934,14.235 498.5,15C 497.207,15.49 495.873,15.6567 494.5,15.5 Z" /><ns0:path style="opacity:0.004" fill="#000100" d="M 503.5,15.5 C 502.833,14.1667 502.833,14.1667 503.5,15.5 Z" /><ns0:path style="opacity:0.004" fill="#000100" d="M 503.5,15.5 C 504.5,15.8333 505.167,16.5 505.5,17.5C 505.167,17.5 504.833,17.5 504.5,17.5C 503.662,17.1583 503.328,16.4916 503.5,15.5 Z" /><ns0:path style="opacity:0.004" fill="#000000" d="M 487.5,17.5 C 488.251,16.4265 489.251,16.2599 490.5,17C 489.552,17.4828 488.552,17.6495 487.5,17.5 Z" /><ns0:path style="opacity:0.004" fill="#000000" d="M 479.5,17.5 C 480.833,18.1667 480.833,18.1667 479.5,17.5 Z" /><ns0:path style="opacity:0.004" fill="#000301" d="M 497.5,17.5 C 498.833,18.1667 498.833,18.1667 497.5,17.5 Z" /><ns0:path style="opacity:0.004" fill="#000000" d="M 487.5,18.5 C 489.657,19.0533 489.49,20.0533 487,21.5C 486.25,20.8742 485.416,20.3742 484.5,20C 485.737,19.7679 486.737,19.2679 487.5,18.5 Z" /><ns0:path style="opacity:0.004" fill="#000100" d="M 480.5,21.5 C 480.897,20.475 481.563,20.3083 482.5,21C 481.906,21.4643 481.239,21.631 480.5,21.5 Z" /><ns0:path style="opacity:0.006" fill="#010201" d="M 480.5,21.5 C 480.672,22.4916 480.338,23.1583 479.5,23.5C 479.328,22.5084 479.662,21.8417 480.5,21.5 Z" /><ns0:path style="opacity:0.004" fill="#000000" d="M 416.5,31.5 C 417.525,31.8966 417.692,32.5632 417,33.5C 416.536,32.9056 416.369,32.2389 416.5,31.5 Z" /><ns0:path style="opacity:0.004" fill="#000000" d="M 422.5,31.5 C 423.043,31.56 423.376,31.8933 423.5,32.5C 422.081,34.3359 420.914,36.3359 420,38.5C 419.833,37.6667 419.667,36.8333 419.5,36C 420.008,34.1074 421.008,32.6074 422.5,31.5 Z" /><ns0:path style="opacity:0.004" fill="#000000" d="M 425.5,31.5 C 426.833,32.1667 426.833,32.1667 425.5,31.5 Z" /><ns0:path style="opacity:0.005" fill="#000000" d="M 428.5,32.5 C 429.251,31.4265 430.251,31.2599 431.5,32C 430.552,32.4828 429.552,32.6495 428.5,32.5 Z" /><ns0:path style="opacity:0.004" fill="#000000" d="M 433.5,31.5 C 434.833,32.1667 434.833,32.1667 433.5,31.5 Z" /><ns0:path style="opacity:0.004" fill="#000100" d="M 436.5,32.5 C 436.897,31.475 437.563,31.3083 438.5,32C 437.906,32.4643 437.239,32.631 436.5,32.5 Z" /><ns0:path style="opacity:0.004" fill="#040303" d="M 446.5,32.5 C 445.833,31.1667 445.833,31.1667 446.5,32.5 Z" /><ns0:path style="opacity:0.004" fill="#000000" d="M 434.5,33.5 C 435.833,34.1667 435.833,34.1667 434.5,33.5 Z" /><ns0:path style="opacity:0.004" fill="#000000" d="M 415.5,36.5 C 415.897,35.475 416.563,35.3083 417.5,36C 416.906,36.4643 416.239,36.631 415.5,36.5 Z" /><ns0:path style="opacity:0.004" fill="#020302" d="M 425.5,35.5 C 426.833,36.1667 426.833,36.1667 425.5,35.5 Z" /><ns0:path style="opacity:0.004" fill="#000000" d="M 415.5,36.5 C 415.5,36.8333 415.5,37.1667 415.5,37.5C 414.83,37.0187 414.83,36.6853 415.5,36.5 Z" /><ns0:path style="opacity:0.004" fill="#000000" d="M 415.5,37.5 C 416.239,37.369 416.906,37.5357 417.5,38C 416.563,38.6917 415.897,38.525 415.5,37.5 Z" /><ns0:path style="opacity:0.004" fill="#000000" d="M 384.5,47.5 C 385.251,46.4265 386.251,46.2599 387.5,47C 386.648,48.7284 385.648,48.895 384.5,47.5 Z" /><ns0:path style="opacity:0.005" fill="#000000" d="M 385.5,52.5 C 384.833,52.5 384.167,52.5 383.5,52.5C 382.342,51.0502 382.842,50.0502 385,49.5C 385.483,50.448 385.649,51.448 385.5,52.5 Z" /><ns0:path style="opacity:0.004" fill="#020304" d="M 371.5,55.5 C 372.833,56.1667 372.833,56.1667 371.5,55.5 Z" /><ns0:path style="opacity:0.004" fill="#000200" d="M 362.5,60.5 C 361.71,61.4013 360.71,62.0679 359.5,62.5C 359.821,60.9519 360.821,60.2852 362.5,60.5 Z" /><ns0:path style="opacity:0.004" fill="#000000" d="M 335.5,63.5 C 336.833,64.1667 336.833,64.1667 335.5,63.5 Z" /><ns0:path style="opacity:0.004" fill="#000000" d="M 345.5,64.5 C 345.897,63.475 346.563,63.3083 347.5,64C 346.906,64.4643 346.239,64.631 345.5,64.5 Z" /><ns0:path style="opacity:0.004" fill="#000000" d="M 338.5,64.5 C 339.289,64.7828 339.956,65.2828 340.5,66C 339.184,66.5281 338.517,66.0281 338.5,64.5 Z" /><ns0:path style="opacity:0.004" fill="#000000" d="M 341.5,66.5 C 341.897,65.475 342.563,65.3083 343.5,66C 342.906,66.4643 342.239,66.631 341.5,66.5 Z" /><ns0:path style="opacity:0.004" fill="#000000" d="M 338.5,68.5 C 339.833,69.1667 339.833,69.1667 338.5,68.5 Z" /><ns0:path style="opacity:0.005" fill="#000000" d="M 303.5,82.5 C 305.288,81.3775 307.288,81.2109 309.5,82C 307.527,82.4955 305.527,82.6621 303.5,82.5 Z" /><ns0:path style="opacity:0.004" fill="#020302" d="M 305.5,83.5 C 306.833,84.1667 306.833,84.1667 305.5,83.5 Z" /><ns0:path style="opacity:0.004" fill="#000000" d="M 288.5,92.5 C 289.251,91.4265 290.251,91.2599 291.5,92C 290.552,92.4828 289.552,92.6495 288.5,92.5 Z" /><ns0:path style="opacity:0.004" fill="#000000" d="M 273.5,96.5 C 273.897,95.475 274.563,95.3083 275.5,96C 274.906,96.4643 274.239,96.631 273.5,96.5 Z" /><ns0:path style="opacity:0.005" fill="#000103" d="M 278.5,96.5 C 279.601,95.4017 280.934,95.235 282.5,96C 281.207,96.49 279.873,96.6567 278.5,96.5 Z" /><ns0:path style="opacity:0.004" fill="#000000" d="M 271.5,98.5 C 272.251,97.4265 273.251,97.2599 274.5,98C 273.552,98.4828 272.552,98.6495 271.5,98.5 Z" /><ns0:path style="opacity:0.004" fill="#000100" d="M 279.5,98.5 C 278.833,97.1667 278.833,97.1667 279.5,98.5 Z" /><ns0:path style="opacity:0.004" fill="#000000" d="M 271.5,103.5 C 270.475,103.103 270.308,102.437 271,101.5C 271.464,102.094 271.631,102.761 271.5,103.5 Z" /><ns0:path style="opacity:0.004" fill="#000000" d="M 254.5,111.5 C 255.833,112.167 255.833,112.167 254.5,111.5 Z" /><ns0:path style="opacity:0.004" fill="#000000" d="M 251.5,116.5 C 250.448,116.649 249.448,116.483 248.5,116C 249.749,115.26 250.749,115.427 251.5,116.5 Z" /><ns0:path style="opacity:0.004" fill="#000000" d="M 224.5,127.5 C 228.838,127.622 229.172,127.955 225.5,128.5C 225.33,129.822 225.663,130.989 226.5,132C 225.5,132.667 224.5,132.667 223.5,132C 223.912,130.436 224.245,128.936 224.5,127.5 Z" /><ns0:path style="opacity:0.004" fill="#000000" d="M 227.5,130.5 C 228.077,129.227 228.743,129.227 229.5,130.5C 229.03,131.463 228.363,131.463 227.5,130.5 Z" /><ns0:path style="opacity:0.004" fill="#000000" d="M 207.5,145.5 C 207.897,144.475 208.563,144.308 209.5,145C 208.906,145.464 208.239,145.631 207.5,145.5 Z" /><ns0:path style="opacity:0.005" fill="#010102" d="M 207.5,148.5 C 207.5,149.167 207.167,149.5 206.5,149.5C 205.321,147.591 205.654,147.258 207.5,148.5 Z" /><ns0:path style="opacity:0.004" fill="#020302" d="M 195.5,155.5 C 196.833,156.167 196.833,156.167 195.5,155.5 Z" /><ns0:path style="opacity:0.004" fill="#000000" d="M 159.5,176.5 C 161.288,175.378 163.288,175.211 165.5,176C 163.527,176.495 161.527,176.662 159.5,176.5 Z" /><ns0:path style="opacity:0.004" fill="#000000" d="M 159.5,178.5 C 160.833,179.167 160.833,179.167 159.5,178.5 Z" /><ns0:path style="opacity:0.004" fill="#000000" d="M 168.5,182.5 C 164.646,181.011 163.979,181.678 166.5,184.5C 166.167,185.5 165.5,186.167 164.5,186.5C 163.521,185.235 162.521,183.901 161.5,182.5C 162.025,181.808 162.692,181.308 163.5,181C 163.167,180.667 162.833,180.333 162.5,180C 165.79,177.813 167.79,178.646 168.5,182.5 Z" /><ns0:path style="opacity:0.006" fill="#000000" d="M 159.5,187.5 C 159.897,186.475 160.563,186.308 161.5,187C 160.906,187.464 160.239,187.631 159.5,187.5 Z" /><ns0:path style="opacity:0.005" fill="#000000" d="M 127.5,207.5 C 130.001,207.511 130.168,208.178 128,209.5C 127.536,208.906 127.369,208.239 127.5,207.5 Z" /><ns0:path style="opacity:0.004" fill="#000000" d="M 133.5,209.5 C 132.325,209.719 131.325,209.386 130.5,208.5C 131.86,207.335 132.86,207.668 133.5,209.5 Z" /><ns0:path style="opacity:0.004" fill="#000000" d="M 140.5,208.5 C 140.167,209.167 139.833,209.833 139.5,210.5C 138.691,209.531 137.691,208.698 136.5,208C 138.066,207.235 139.399,207.402 140.5,208.5 Z" /><ns0:path style="opacity:0.004" fill="#000000" d="M 133.5,209.5 C 135.028,209.517 135.528,210.184 135,211.5C 134.283,210.956 133.783,210.289 133.5,209.5 Z" /><ns0:path style="opacity:0.004" fill="#000000" d="M 127.5,213.5 C 129.337,213.639 129.67,214.306 128.5,215.5C 127.702,215.043 127.369,214.376 127.5,213.5 Z" /><ns0:path style="opacity:0.004" fill="#010000" d="M 135.5,215.5 C 135.5,216.167 135.167,216.5 134.5,216.5C 133.224,215.614 133.224,214.614 134.5,213.5C 135.298,213.957 135.631,214.624 135.5,215.5 Z" /><ns0:path style="opacity:0.004" fill="#000000" d="M 127.5,216.5 C 128.525,216.897 128.692,217.563 128,218.5C 127.536,217.906 127.369,217.239 127.5,216.5 Z" /><ns0:path style="opacity:0.004" fill="#000201" d="M 129.5,221.5 C 129.5,221.833 129.5,222.167 129.5,222.5C 128.624,222.631 127.957,222.298 127.5,221.5C 127.97,220.537 128.637,220.537 129.5,221.5 Z" /><ns0:path style="opacity:0.004" fill="#000000" d="M 119.5,223.5 C 120.833,224.167 120.833,224.167 119.5,223.5 Z" /><ns0:path style="opacity:0.004" fill="#000000" d="M 122.5,227.5 C 122.517,225.972 123.184,225.472 124.5,226C 123.956,226.717 123.289,227.217 122.5,227.5 Z" /><ns0:path style="opacity:0.004" fill="#020302" d="M 122.5,227.5 C 121.833,228.167 121.833,228.167 122.5,227.5 Z" /><ns0:path style="opacity:0.004" fill="#010201" d="M 115.5,235.5 C 116.833,236.167 116.833,236.167 115.5,235.5 Z" /><ns0:path style="opacity:0.005" fill="#000200" d="M 115.5,239.5 C 115.167,240.5 114.5,241.167 113.5,241.5C 113.5,240.167 114.167,239.5 115.5,239.5 Z" /><ns0:path style="opacity:0.004" fill="#020107" d="M 107.5,247.5 C 108.833,248.167 108.833,248.167 107.5,247.5 Z" /><ns0:path style="opacity:0.004" fill="#000000" d="M 95.5,255.5 C 98.5688,255.963 99.0688,257.296 97,259.5C 95.8118,258.437 95.3118,257.103 95.5,255.5 Z" /><ns0:path style="opacity:0.005" fill="#000000" d="M 102.5,256.5 C 102.5,256.833 102.5,257.167 102.5,257.5C 101.508,257.328 100.842,257.662 100.5,258.5C 100.5,259.167 100.167,259.5 99.5,259.5C 99.3433,258.127 99.51,256.793 100,255.5C 100.671,256.252 101.504,256.586 102.5,256.5 Z" /><ns0:path style="opacity:0.004" fill="#000100" d="M 96.5,264.5 C 95.475,264.103 95.3083,263.437 96,262.5C 96.4643,263.094 96.631,263.761 96.5,264.5 Z" /><ns0:path style="opacity:0.004" fill="#010202" d="M 94.5,267.5 C 94.5,267.833 94.5,268.167 94.5,268.5C 93.2334,269.087 92.2334,269.087 91.5,268.5C 92.325,267.614 93.325,267.281 94.5,267.5 Z" /><ns0:path style="opacity:0.004" fill="#000200" d="M 86.5,279.5 C 86.6716,280.492 86.3382,281.158 85.5,281.5C 83.9689,280.075 84.3023,279.409 86.5,279.5 Z" /><ns0:path style="opacity:0.004" fill="#000100" d="M 79.5,282.5 C 80.525,282.897 80.6917,283.563 80,284.5C 79.5357,283.906 79.369,283.239 79.5,282.5 Z" /><ns0:path style="opacity:0.005" fill="#020000" d="M 82.5,286.5 C 82.1667,287.167 81.8333,287.833 81.5,288.5C 79.3544,288.304 79.1878,287.304 81,285.5C 81.3826,286.056 81.8826,286.389 82.5,286.5 Z" /><ns0:path style="opacity:0.004" fill="#000101" d="M 79.5,291.5 C 78.2485,293.001 77.2485,294.668 76.5,296.5C 75.7436,293.928 76.5769,291.595 79,289.5C 79.4643,290.094 79.631,290.761 79.5,291.5 Z" /><ns0:path style="opacity:0.004" fill="#000002" d="M 941.5,291.5 C 942.833,292.167 942.833,292.167 941.5,291.5 Z" /><ns0:path style="opacity:0.004" fill="#020001" d="M 940.5,299.5 C 940.5,299.167 940.5,298.833 940.5,298.5C 941.895,296.946 942.561,297.279 942.5,299.5C 942.19,301.906 941.523,301.906 940.5,299.5 Z" /><ns0:path style="opacity:0.008" fill="#000000" d="M 65.5,303.5 C 66.8333,304.167 66.8333,304.167 65.5,303.5 Z" /><ns0:path style="opacity:0.004" fill="#000000" d="M 71.5,305.5 C 71.5,306.167 71.1667,306.5 70.5,306.5C 70.1667,306.5 69.8333,306.5 69.5,306.5C 69.3668,303.075 70.0335,302.742 71.5,305.5 Z" /><ns0:path style="opacity:0.004" fill="#000000" d="M 941.5,304.5 C 942.077,303.227 942.743,303.227 943.5,304.5C 943.03,305.463 942.363,305.463 941.5,304.5 Z" /><ns0:path style="opacity:0.004" fill="#000000" d="M 938.5,305.5 C 940.225,305.843 940.725,306.843 940,308.5C 939.617,307.944 939.117,307.611 938.5,307.5C 938.5,306.833 938.5,306.167 938.5,305.5 Z" /><ns0:path style="opacity:0.004" fill="#000000" d="M 69.5,306.5 C 69.1034,307.525 68.4368,307.692 67.5,307C 68.0944,306.536 68.7611,306.369 69.5,306.5 Z" /><ns0:path style="opacity:0.004" fill="#000000" d="M 941.5,307.5 C 943.852,308.543 944.019,309.876 942,311.5C 941.51,310.207 941.343,308.873 941.5,307.5 Z" /><ns0:path style="opacity:0.004" fill="#000200" d="M 66.5,312.5 C 65.4265,311.749 65.2599,310.749 66,309.5C 66.4828,310.448 66.6495,311.448 66.5,312.5 Z" /><ns0:path style="opacity:0.004" fill="#020300" d="M 63.5,311.5 C 64.8333,312.167 64.8333,312.167 63.5,311.5 Z" /><ns0:path style="opacity:0.005" fill="#000000" d="M 939.5,312.5 C 940.397,313.598 941.23,313.598 942,312.5C 942.226,315.095 942.726,317.595 943.5,320C 942.809,321.067 942.309,322.234 942,323.5C 941.964,319.769 941.131,316.102 939.5,312.5 Z" /><ns0:path style="opacity:0.004" fill="#000000" d="M 936.5,317.5 C 936.897,316.475 937.563,316.308 938.5,317C 937.906,317.464 937.239,317.631 936.5,317.5 Z" /><ns0:path style="opacity:0.004" fill="#000000" d="M 50.5,319.5 C 51.7647,320.514 52.4313,322.014 52.5,324C 52.1667,325.5 51.8333,327 51.5,328.5C 50.2798,327.289 49.1131,327.289 48,328.5C 47.3333,326.833 47.3333,325.167 48,323.5C 49.2975,324.784 50.4642,324.617 51.5,323C 50.6634,321.989 50.33,320.822 50.5,319.5 Z" /><ns0:path style="opacity:0.004" fill="#000000" d="M 59.5,319.5 C 61.9732,319.947 62.1399,320.947 60,322.5C 59.5172,321.552 59.3505,320.552 59.5,319.5 Z" /><ns0:path style="opacity:0.004" fill="#000000" d="M 55.5,321.5 C 56.8333,322.167 56.8333,322.167 55.5,321.5 Z" /><ns0:path style="opacity:0.004" fill="#000000" d="M 59.5,326.5 C 59.5,326.833 59.5,327.167 59.5,327.5C 58.2334,328.087 57.2334,328.087 56.5,327.5C 57.325,326.614 58.325,326.281 59.5,326.5 Z" /><ns0:path style="opacity:0.007" fill="#000000" d="M 47.5,337.5 C 48.2344,338.878 48.9011,340.378 49.5,342C 49.1667,342.167 48.8333,342.333 48.5,342.5C 47.5481,340.955 47.2148,339.288 47.5,337.5 Z" /><ns0:path style="opacity:0.004" fill="#020302" d="M 51.5,337.5 C 52.8333,338.167 52.8333,338.167 51.5,337.5 Z" /><ns0:path style="opacity:0.004" fill="#010402" d="M 47.5,345.5 C 48.8333,346.167 48.8333,346.167 47.5,345.5 Z" /><ns0:path style="opacity:0.004" fill="#000000" d="M 926.5,365.5 C 927.833,366.167 927.833,366.167 926.5,365.5 Z" /><ns0:path style="opacity:0.004" fill="#010000" d="M 42.5,367.5 C 41.2502,367.577 40.4169,368.244 40,369.5C 39.5172,368.552 39.3505,367.552 39.5,366.5C 40.791,366.263 41.791,366.596 42.5,367.5 Z" /><ns0:path style="opacity:0.004" fill="#000000" d="M 32.5,367.5 C 33.2485,368.531 33.9152,369.698 34.5,371C 33.365,371.749 32.365,371.583 31.5,370.5C 32.1272,369.583 32.4606,368.583 32.5,367.5 Z" /><ns0:path style="opacity:0.004" fill="#000000" d="M 34.5,368.5 C 35.6009,367.402 36.9343,367.235 38.5,368C 37.2068,368.49 35.8734,368.657 34.5,368.5 Z" /><ns0:path style="opacity:0.004" fill="#010101" d="M 925.5,367.5 C 926.525,367.897 926.692,368.563 926,369.5C 925.536,368.906 925.369,368.239 925.5,367.5 Z" /><ns0:path style="opacity:0.004" fill="#000000" d="M 36.5,370.5 C 37.525,370.897 37.6917,371.563 37,372.5C 36.5357,371.906 36.369,371.239 36.5,370.5 Z" /><ns0:path style="opacity:0.004" fill="#000100" d="M 926.5,370.5 C 927.573,371.251 927.74,372.251 927,373.5C 925.272,372.648 925.105,371.648 926.5,370.5 Z" /><ns0:path style="opacity:0.004" fill="#000000" d="M 31.5,373.5 C 32.675,373.281 33.675,373.614 34.5,374.5C 32.9483,375.798 31.9483,375.465 31.5,373.5 Z" /><ns0:path style="opacity:0.004" fill="#000000" d="M 922.5,373.5 C 924.308,374.918 924.975,376.918 924.5,379.5C 923.833,378.167 923.167,376.833 922.5,375.5C 922.5,374.833 922.5,374.167 922.5,373.5 Z" /><ns0:path style="opacity:0.005" fill="#000000" d="M 38.5,375.5 C 38.6716,376.492 38.3382,377.158 37.5,377.5C 37.4226,376.25 36.756,375.417 35.5,375C 36.7494,374.26 37.7494,374.427 38.5,375.5 Z" /><ns0:path style="opacity:0.004" fill="#000100" d="M 925.5,374.5 C 927.476,375.427 927.809,376.76 926.5,378.5C 925.571,377.311 925.238,375.978 925.5,374.5 Z" /><ns0:path style="opacity:0.004" fill="#000000" d="M 31.5,377.5 C 32.5983,378.601 32.765,379.934 32,381.5C 31.51,380.207 31.3433,378.873 31.5,377.5 Z" /><ns0:path style="opacity:0.005" fill="#000100" d="M 924.5,379.5 C 925.613,380.946 925.78,382.613 925,384.5C 924.506,382.866 924.34,381.199 924.5,379.5 Z" /><ns0:path style="opacity:0.004" fill="#000100" d="M 926.5,380.5 C 927.833,381.167 927.833,381.167 926.5,380.5 Z" /><ns0:path style="opacity:0.004" fill="#000000" d="M 921.5,382.5 C 922.833,383.167 922.833,383.167 921.5,382.5 Z" /><ns0:path style="opacity:0.004" fill="#000100" d="M 31.5,383.5 C 34.0009,383.511 34.1676,384.178 32,385.5C 31.5357,384.906 31.369,384.239 31.5,383.5 Z" /><ns0:path style="opacity:0.004" fill="#020302" d="M 32.5,387.5 C 33.8333,388.167 33.8333,388.167 32.5,387.5 Z" /><ns0:path style="opacity:0.004" fill="#020100" d="M 25.5,424.5 C 25.1667,425.167 24.8333,425.833 24.5,426.5C 23.2426,425.377 23.5759,424.711 25.5,424.5 Z" /><ns0:path style="opacity:0.004" fill="#000000" d="M 908.5,426.5 C 911.167,427.167 911.167,427.833 908.5,428.5C 908.5,427.833 908.5,427.167 908.5,426.5 Z" /><ns0:path style="opacity:0.004" fill="#000000" d="M 18.5,459.5 C 18.5,460.833 18.5,462.167 18.5,463.5C 17.4138,463.38 16.7472,462.713 16.5,461.5C 16.7472,460.287 17.4138,459.62 18.5,459.5 Z" /><ns0:path style="opacity:0.005" fill="#000000" d="M 894.5,463.5 C 895.757,464.623 895.424,465.289 893.5,465.5C 893.328,464.508 893.662,463.842 894.5,463.5 Z" /><ns0:path style="opacity:0.004" fill="#000002" d="M 892.5,470.5 C 893.525,470.897 893.692,471.563 893,472.5C 892.536,471.906 892.369,471.239 892.5,470.5 Z" /><ns0:path style="opacity:0.005" fill="#000002" d="M 890.5,475.5 C 891.598,476.601 891.765,477.934 891,479.5C 890.51,478.207 890.343,476.873 890.5,475.5 Z" /><ns0:path style="opacity:0.004" fill="#000000" d="M 893.5,479.5 C 893.897,478.475 894.563,478.308 895.5,479C 894.906,479.464 894.239,479.631 893.5,479.5 Z" /><ns0:path style="opacity:0.004" fill="#000202" d="M 877.5,511.5 C 877.897,510.475 878.563,510.308 879.5,511C 878.906,511.464 878.239,511.631 877.5,511.5 Z" /><ns0:path style="opacity:0.004" fill="#000002" d="M 875.5,513.5 C 876.289,513.783 876.956,514.283 877.5,515C 876.184,515.528 875.517,515.028 875.5,513.5 Z" /><ns0:path style="opacity:0.004" fill="#010103" d="M 873.5,515.5 C 874.772,518.656 874.439,518.989 872.5,516.5C 872.5,515.833 872.833,515.5 873.5,515.5 Z" /><ns0:path style="opacity:0.004" fill="#000000" d="M 879.5,517.5 C 880.525,517.897 880.692,518.563 880,519.5C 879.536,518.906 879.369,518.239 879.5,517.5 Z" /><ns0:path style="opacity:0.004" fill="#000002" d="M 870.5,521.5 C 870.5,521.167 870.5,520.833 870.5,520.5C 872.225,520.843 872.725,521.843 872,523.5C 871.722,522.584 871.222,521.918 870.5,521.5 Z" /><ns0:path style="opacity:0.004" fill="#000002" d="M 876.5,524.5 C 878.028,524.517 878.528,525.184 878,526.5C 876.667,528.5 875.333,530.5 874,532.5C 872.129,533.668 870.629,533.168 869.5,531C 870.743,529.846 871.743,528.512 872.5,527C 873.449,526.383 874.282,526.549 875,527.5C 875.513,526.473 876.013,525.473 876.5,524.5 Z" /><ns0:path style="opacity:0.004" fill="#000000" d="M 866.5,539.5 C 864.354,539.304 864.188,538.304 866,536.5C 866.483,537.448 866.649,538.448 866.5,539.5 Z" /><ns0:path style="opacity:0.004" fill="#000000" d="M 866.5,539.5 C 867.376,539.369 868.043,539.702 868.5,540.5C 866.993,544.355 866.326,544.021 866.5,539.5 Z" /><ns0:path style="opacity:0.005" fill="#000100" d="M 861.5,541.5 C 862.376,541.369 863.043,541.702 863.5,542.5C 861.192,543.873 860.525,543.54 861.5,541.5 Z" /><ns0:path style="opacity:0.004" fill="#000000" d="M 15.5,549.5 C 16.5735,550.251 16.7401,551.251 16,552.5C 15.5172,551.552 15.3505,550.552 15.5,549.5 Z" /><ns0:path style="opacity:0.004" fill="#000000" d="M 17.5,559.5 C 18.1667,559.5 18.5,559.833 18.5,560.5C 18.8333,561.167 19.1667,561.833 19.5,562.5C 17.4099,562.55 16.0766,561.55 15.5,559.5C 15.9698,558.537 16.6365,558.537 17.5,559.5 Z" /><ns0:path style="opacity:0.004" fill="#000000" d="M 16.5,565.5 C 17.7125,566.497 17.5458,567.497 16,568.5C 15.5304,567.423 15.6971,566.423 16.5,565.5 Z" /><ns0:path style="opacity:0.004" fill="#000000" d="M 18.5,569.5 C 19.525,569.897 19.6917,570.563 19,571.5C 18.5357,570.906 18.369,570.239 18.5,569.5 Z" /><ns0:path style="opacity:0.006" fill="#030104" d="M 845.5,569.5 C 845.715,571.179 845.048,572.179 843.5,572.5C 843.932,571.29 844.599,570.29 845.5,569.5 Z" /><ns0:path style="opacity:0.005" fill="#000002" d="M 846.5,570.5 C 847.573,571.251 847.74,572.251 847,573.5C 846.517,572.552 846.351,571.552 846.5,570.5 Z" /><ns0:path style="opacity:0.004" fill="#000000" d="M 16.5,571.5 C 17.2891,571.783 17.9558,572.283 18.5,573C 17.184,573.528 16.5173,573.028 16.5,571.5 Z" /><ns0:path style="opacity:0.004" fill="#000000" d="M 20.5,573.5 C 21.8333,574.167 21.8333,574.167 20.5,573.5 Z" /><ns0:path style="opacity:0.005" fill="#010101" d="M 843.5,573.5 C 843.5,574.167 843.5,574.833 843.5,575.5C 842.833,575.5 842.167,575.5 841.5,575.5C 841.833,574.5 842.5,573.833 843.5,573.5 Z" /><ns0:path style="opacity:0.004" fill="#000000" d="M 843.5,575.5 C 844.222,575.082 844.722,574.416 845,573.5C 847.057,576.303 846.557,576.97 843.5,575.5 Z" /><ns0:path style="opacity:0.004" fill="#000000" d="M 840.5,576.5 C 842.776,576.756 843.943,578.09 844,580.5C 845.011,579.663 846.178,579.33 847.5,579.5C 845.856,580.924 844.356,582.591 843,584.5C 842.994,581.736 841.828,579.736 839.5,578.5C 839.833,577.833 840.167,577.167 840.5,576.5 Z" /><ns0:path style="opacity:0.004" fill="#000000" d="M 847.5,578.5 C 848.833,579.167 848.833,579.167 847.5,578.5 Z" /><ns0:path style="opacity:0.004" fill="#000201" d="M 837.5,581.5 C 838.525,581.897 838.692,582.563 838,583.5C 837.536,582.906 837.369,582.239 837.5,581.5 Z" /><ns0:path style="opacity:0.005" fill="#000000" d="M 834.5,586.5 C 835.675,586.281 836.675,586.614 837.5,587.5C 836.14,588.665 835.14,588.332 834.5,586.5 Z" /><ns0:path style="opacity:0.004" fill="#000000" d="M 847.5,586.5 C 848.598,587.601 848.765,588.934 848,590.5C 847.51,589.207 847.343,587.873 847.5,586.5 Z" /><ns0:path style="opacity:0.004" fill="#020101" d="M 831.5,590.5 C 832.043,590.56 832.376,590.893 832.5,591.5C 831.743,592.773 831.077,592.773 830.5,591.5C 831.167,591.5 831.5,591.167 831.5,590.5 Z" /><ns0:path style="opacity:0.004" fill="#000000" d="M 841.5,592.5 C 841.897,591.475 842.563,591.308 843.5,592C 842.906,592.464 842.239,592.631 841.5,592.5 Z" /><ns0:path style="opacity:0.005" fill="#000000" d="M 831.5,593.5 C 832.793,595.364 832.793,597.364 831.5,599.5C 830.232,597.905 830.232,595.905 831.5,593.5 Z" /><ns0:path style="opacity:0.004" fill="#000000" d="M 828.5,596.5 C 829.833,597.167 829.833,597.167 828.5,596.5 Z" /><ns0:path style="opacity:0.007" fill="#000000" d="M 826.5,601.5 C 828.337,601.639 828.67,602.306 827.5,603.5C 826.702,603.043 826.369,602.376 826.5,601.5 Z" /><ns0:path style="opacity:0.005" fill="#000000" d="M 829.5,601.5 C 830.782,602.708 830.782,604.042 829.5,605.5C 829.094,604.443 829.094,603.109 829.5,601.5 Z" /><ns0:path style="opacity:0.004" fill="#000000" d="M 823.5,605.5 C 824.568,604.566 825.901,604.232 827.5,604.5C 827.649,605.552 827.483,606.552 827,607.5C 826.184,606.177 825.017,605.511 823.5,605.5 Z" /><ns0:path style="opacity:0.005" fill="#000000" d="M 828.5,606.5 C 829.289,606.783 829.956,607.283 830.5,608C 829.184,608.528 828.517,608.028 828.5,606.5 Z" /><ns0:path style="opacity:0.004" fill="#000000" d="M 821.5,612.5 C 822.995,612.415 823.995,613.081 824.5,614.5C 823.185,616.316 821.685,617.983 820,619.5C 819.308,618.975 818.808,618.308 818.5,617.5C 819.26,615.64 820.26,613.973 821.5,612.5 Z" /><ns0:path style="opacity:0.004" fill="#000100" d="M 34.5,618.5 C 34.5,619.167 34.5,619.833 34.5,620.5C 32.0673,620.214 32.0673,619.548 34.5,618.5 Z" /><ns0:path style="opacity:0.005" fill="#000200" d="M 812.5,620.5 C 816.029,621.297 816.195,622.297 813,623.5C 812.517,622.552 812.351,621.552 812.5,620.5 Z" /><ns0:path style="opacity:0.004" fill="#000201" d="M 811.5,621.5 C 811.262,623.404 810.262,624.738 808.5,625.5C 808.5,624.833 808.5,624.167 808.5,623.5C 809.167,623.5 809.5,623.167 809.5,622.5C 810.167,622.167 810.833,621.833 811.5,621.5 Z" /><ns0:path style="opacity:0.004" fill="#000200" d="M 35.5,623.5 C 34.8333,622.167 34.8333,622.167 35.5,623.5 Z" /><ns0:path style="opacity:0.004" fill="#000200" d="M 805.5,630.5 C 806.833,631.167 806.833,631.167 805.5,630.5 Z" /><ns0:path style="opacity:0.004" fill="#000000" d="M 785.5,655.5 C 785.833,655.5 786.167,655.5 786.5,655.5C 784.669,657.845 783.502,660.512 783,663.5C 782.506,661.866 782.34,660.199 782.5,658.5C 783.167,658.5 783.5,658.167 783.5,657.5C 783.833,656.5 784.5,655.833 785.5,655.5 Z" /><ns0:path style="opacity:0.004" fill="#000000" d="M 47.5,661.5 C 48.525,661.897 48.6917,662.563 48,663.5C 47.5357,662.906 47.369,662.239 47.5,661.5 Z" /><ns0:path style="opacity:0.004" fill="#000000" d="M 775.5,667.5 C 775.657,668.873 775.49,670.207 775,671.5C 774.283,670.956 773.783,670.289 773.5,669.5C 773.833,668.5 774.5,667.833 775.5,667.5 Z" /><ns0:path style="opacity:0.005" fill="#000000" d="M 767.5,677.5 C 767.81,678.738 768.31,678.738 769,677.5C 769.023,680.668 768.189,681.001 766.5,678.5C 766.5,677.833 766.833,677.5 767.5,677.5 Z" /><ns0:path style="opacity:0.004" fill="#000000" d="M 758.5,686.5 C 759.833,687.167 759.833,687.167 758.5,686.5 Z" /><ns0:path style="opacity:0.004" fill="#000100" d="M 757.5,687.5 C 757.833,687.5 758.167,687.5 758.5,687.5C 756.16,690.886 753.493,693.22 750.5,694.5C 752.5,691.833 754.833,689.5 757.5,687.5 Z" /><ns0:path style="opacity:0.004" fill="#000200" d="M 79.5,705.5 C 80.525,705.897 80.6917,706.563 80,707.5C 79.5357,706.906 79.369,706.239 79.5,705.5 Z" /><ns0:path style="opacity:0.004" fill="#000100" d="M 738.5,705.5 C 738.833,705.5 739.167,705.5 739.5,705.5C 739.315,706.17 738.981,706.17 738.5,705.5 Z" /><ns0:path style="opacity:0.004" fill="#000000" d="M 81.5,709.5 C 82.0768,708.227 82.7435,708.227 83.5,709.5C 83.0302,710.463 82.3635,710.463 81.5,709.5 Z" /><ns0:path style="opacity:0.005" fill="#000100" d="M 734.5,709.5 C 735.757,710.623 735.424,711.289 733.5,711.5C 733.833,710.833 734.167,710.167 734.5,709.5 Z" /><ns0:path style="opacity:0.004" fill="#000000" d="M 733.5,711.5 C 732.833,712.167 732.833,712.167 733.5,711.5 Z" /><ns0:path style="opacity:0.004" fill="#000000" d="M 730.5,713.5 C 731.833,714.167 731.833,714.167 730.5,713.5 Z" /><ns0:path style="opacity:0.004" fill="#000000" d="M 729.5,714.5 C 729.833,714.5 730.167,714.5 730.5,714.5C 730.315,715.17 729.981,715.17 729.5,714.5 Z" /><ns0:path style="opacity:0.004" fill="#000100" d="M 733.5,716.5 C 733.897,715.475 734.563,715.308 735.5,716C 734.906,716.464 734.239,716.631 733.5,716.5 Z" /><ns0:path style="opacity:0.004" fill="#000100" d="M 730.5,717.5 C 730.56,716.957 730.893,716.624 731.5,716.5C 732.795,717.098 734.128,717.598 735.5,718C 734.448,719.119 733.281,719.619 732,719.5C 731.722,718.584 731.222,717.918 730.5,717.5 Z" /><ns0:path style="opacity:0.004" fill="#000000" d="M 726.5,717.5 C 727.833,718.167 727.833,718.167 726.5,717.5 Z" /><ns0:path style="opacity:0.004" fill="#000000" d="M 87.5,718.5 C 88.8333,719.167 88.8333,719.167 87.5,718.5 Z" /><ns0:path style="opacity:0.004" fill="#000100" d="M 710.5,730.5 C 711.833,731.167 711.833,731.167 710.5,730.5 Z" /><ns0:path style="opacity:0.004" fill="#000201" d="M 103.5,731.5 C 104.833,732.167 104.833,732.167 103.5,731.5 Z" /><ns0:path style="opacity:0.005" fill="#000002" d="M 709.5,731.5 C 709.833,731.5 710.167,731.5 710.5,731.5C 709.833,732.833 708.833,733.833 707.5,734.5C 707.5,734.167 707.5,733.833 707.5,733.5C 707.833,732.5 708.5,731.833 709.5,731.5 Z" /><ns0:path style="opacity:0.004" fill="#000200" d="M 706.5,734.5 C 706.833,734.5 707.167,734.5 707.5,734.5C 707.315,735.17 706.981,735.17 706.5,734.5 Z" /><ns0:path style="opacity:0.004" fill="#000100" d="M 95.5,736.5 C 95.8966,735.475 96.5632,735.308 97.5,736C 96.9056,736.464 96.2389,736.631 95.5,736.5 Z" /><ns0:path style="opacity:0.005" fill="#000000" d="M 102.5,736.5 C 102.5,737.167 102.167,737.5 101.5,737.5C 100.833,737.5 100.5,737.833 100.5,738.5C 100.5,739.167 100.167,739.5 99.5,739.5C 99.3433,738.127 99.51,736.793 100,735.5C 100.671,736.252 101.504,736.586 102.5,736.5 Z" /><ns0:path style="opacity:0.004" fill="#000200" d="M 96.5,737.5 C 97.8333,738.167 97.8333,738.167 96.5,737.5 Z" /><ns0:path style="opacity:0.004" fill="#000300" d="M 97.5,739.5 C 98.525,739.897 98.6917,740.563 98,741.5C 97.5357,740.906 97.369,740.239 97.5,739.5 Z" /><ns0:path style="opacity:0.004" fill="#000002" d="M 701.5,740.5 C 701.897,739.475 702.563,739.308 703.5,740C 702.906,740.464 702.239,740.631 701.5,740.5 Z" /><ns0:path style="opacity:0.004" fill="#010100" d="M 95.5,742.5 C 96.8333,743.167 96.8333,743.167 95.5,742.5 Z" /><ns0:path style="opacity:0.004" fill="#000001" d="M 698.5,742.5 C 700.975,742.747 700.975,743.413 698.5,744.5C 697.537,744.03 697.537,743.363 698.5,742.5 Z" /><ns0:path style="opacity:0.004" fill="#000000" d="M 702.5,744.5 C 703.833,745.167 703.833,745.167 702.5,744.5 Z" /><ns0:path style="opacity:0.004" fill="#020101" d="M 694.5,746.5 C 695.833,747.167 695.833,747.167 694.5,746.5 Z" /><ns0:path style="opacity:0.004" fill="#010001" d="M 693.5,748.5 C 694.239,748.369 694.906,748.536 695.5,749C 694.167,749.667 694.167,750.333 695.5,751C 693.741,751.798 692.074,751.631 690.5,750.5C 691.274,749.289 692.107,749.289 693,750.5C 693.464,749.906 693.631,749.239 693.5,748.5 Z" /><ns0:path style="opacity:0.004" fill="#000000" d="M 702.5,749.5 C 703.833,750.167 703.833,750.167 702.5,749.5 Z" /><ns0:path style="opacity:0.004" fill="#000000" d="M 688.5,750.5 C 689.833,751.167 689.833,751.167 688.5,750.5 Z" /><ns0:path style="opacity:0.004" fill="#000000" d="M 697.5,751.5 C 697.897,750.475 698.563,750.308 699.5,751C 698.906,751.464 698.239,751.631 697.5,751.5 Z" /><ns0:path style="opacity:0.007" fill="#000000" d="M 669.5,762.5 C 669.833,762.5 670.167,762.5 670.5,762.5C 671.529,766.364 671.196,766.364 669.5,762.5 Z" /><ns0:path style="opacity:0.008" fill="#000100" d="M 146.5,766.5 C 146.833,766.5 147.167,766.5 147.5,766.5C 147.315,767.17 146.981,767.17 146.5,766.5 Z" /><ns0:path style="opacity:0.004" fill="#000000" d="M 665.5,767.5 C 667.288,766.378 669.288,766.211 671.5,767C 669.527,767.495 667.527,767.662 665.5,767.5 Z" /><ns0:path style="opacity:0.004" fill="#000000" d="M 71.5,767.5 C 72.525,767.897 72.6917,768.563 72,769.5C 71.5357,768.906 71.369,768.239 71.5,767.5 Z" /><ns0:path style="opacity:0.004" fill="#000100" d="M 76.5,767.5 C 79.7973,767.329 80.1306,767.995 77.5,769.5C 76.7025,769.043 76.3691,768.376 76.5,767.5 Z" /><ns0:path style="opacity:0.004" fill="#000200" d="M 72.5,773.5 C 73.4646,774.721 73.298,776.054 72,777.5C 71.4209,776.072 71.5876,774.738 72.5,773.5 Z" /><ns0:path style="opacity:0.006" fill="#010100" d="M 141.5,773.5 C 141.657,774.873 141.49,776.207 141,777.5C 140.722,776.584 140.222,775.918 139.5,775.5C 139.833,774.5 140.5,773.833 141.5,773.5 Z" /><ns0:path style="opacity:0.004" fill="#000100" d="M 661.5,775.5 C 661.897,774.475 662.563,774.308 663.5,775C 662.906,775.464 662.239,775.631 661.5,775.5 Z" /><ns0:path style="opacity:0.004" fill="#010000" d="M 138.5,776.5 C 139.043,776.56 139.376,776.893 139.5,777.5C 138.743,778.773 138.077,778.773 137.5,777.5C 138.167,777.5 138.5,777.167 138.5,776.5 Z" /><ns0:path style="opacity:0.005" fill="#000000" d="M 162.5,776.5 C 163.167,776.5 163.5,776.833 163.5,777.5C 162.069,777.881 161.236,778.881 161,780.5C 160.156,778.537 160.656,777.204 162.5,776.5 Z" /><ns0:path style="opacity:0.004" fill="#000000" d="M 647.5,777.5 C 649.226,777.185 650.893,777.019 652.5,777C 650.852,778.677 649.185,778.844 647.5,777.5 Z" /><ns0:path style="opacity:0.004" fill="#000000" d="M 143.5,777.5 C 144.525,777.897 144.692,778.563 144,779.5C 143.536,778.906 143.369,778.239 143.5,777.5 Z" /><ns0:path style="opacity:0.004" fill="#000100" d="M 166.5,778.5 C 167.5,778.833 168.167,779.5 168.5,780.5C 166.797,781.66 166.131,780.993 166.5,778.5 Z" /><ns0:path style="opacity:0.004" fill="#000000" d="M 653.5,780.5 C 653.897,779.475 654.563,779.308 655.5,780C 654.906,780.464 654.239,780.631 653.5,780.5 Z" /><ns0:path style="opacity:0.004" fill="#000000" d="M 164.5,780.5 C 165.833,781.167 165.833,781.167 164.5,780.5 Z" /><ns0:path style="opacity:0.004" fill="#000000" d="M 646.5,780.5 C 651.662,782.138 651.329,782.638 645.5,782C 646.056,781.617 646.389,781.117 646.5,780.5 Z" /><ns0:path style="opacity:0.004" fill="#000000" d="M 158.5,781.5 C 159.833,782.167 159.833,782.167 158.5,781.5 Z" /><ns0:path style="opacity:0.007" fill="#000000" d="M 652.5,782.5 C 653.251,781.427 654.251,781.26 655.5,782C 654.552,782.483 653.552,782.649 652.5,782.5 Z" /><ns0:path style="opacity:0.004" fill="#000000" d="M 139.5,782.5 C 140.525,782.897 140.692,783.563 140,784.5C 139.536,783.906 139.369,783.239 139.5,782.5 Z" /><ns0:path style="opacity:0.007" fill="#000000" d="M 142.5,782.5 C 143.289,782.783 143.956,783.283 144.5,784C 143.184,784.528 142.517,784.028 142.5,782.5 Z" /><ns0:path style="opacity:0.004" fill="#000000" d="M 162.5,782.5 C 163.833,783.167 163.833,783.167 162.5,782.5 Z" /><ns0:path style="opacity:0.004" fill="#000000" d="M 164.5,782.5 C 165.833,783.167 165.833,783.167 164.5,782.5 Z" /><ns0:path style="opacity:0.004" fill="#000100" d="M 166.5,782.5 C 167.833,783.167 167.833,783.167 166.5,782.5 Z" /><ns0:path style="opacity:0.004" fill="#000000" d="M 642.5,783.5 C 642.897,782.475 643.563,782.308 644.5,783C 643.906,783.464 643.239,783.631 642.5,783.5 Z" /><ns0:path style="opacity:0.004" fill="#030000" d="M 63.5,784.5 C 63.8966,783.475 64.5632,783.308 65.5,784C 64.9056,784.464 64.2389,784.631 63.5,784.5 Z" /><ns0:path style="opacity:0.004" fill="#000000" d="M 136.5,783.5 C 137.833,784.167 137.833,784.167 136.5,783.5 Z" /><ns0:path style="opacity:0.005" fill="#000100" d="M 63.5,785.5 C 64.5735,786.251 64.7401,787.251 64,788.5C 63.5172,787.552 63.3505,786.552 63.5,785.5 Z" /><ns0:path style="opacity:0.004" fill="#000000" d="M 135.5,787.5 C 135.369,786.761 135.536,786.094 136,785.5C 136.692,786.437 136.525,787.103 135.5,787.5 Z" /><ns0:path style="opacity:0.004" fill="#000000" d="M 131.5,787.5 C 132.833,787.5 134.167,787.5 135.5,787.5C 135.5,788.833 135.5,790.167 135.5,791.5C 133.801,791.34 132.134,791.506 130.5,792C 129.295,793.376 127.962,794.542 126.5,795.5C 127.169,792.151 128.836,789.484 131.5,787.5 Z" /><ns0:path style="opacity:0.004" fill="#000000" d="M 629.5,789.5 C 629.5,789.167 629.5,788.833 629.5,788.5C 632.167,788.833 632.167,789.167 629.5,789.5 Z" /><ns0:path style="opacity:0.004" fill="#000000" d="M 629.5,789.5 C 629.103,790.525 628.437,790.692 627.5,790C 628.094,789.536 628.761,789.369 629.5,789.5 Z" /><ns0:path style="opacity:0.004" fill="#000000" d="M 623.5,791.5 C 624.525,791.897 624.692,792.563 624,793.5C 623.536,792.906 623.369,792.239 623.5,791.5 Z" /><ns0:path style="opacity:0.004" fill="#000000" d="M 625.5,792.5 C 625.897,791.475 626.563,791.308 627.5,792C 626.906,792.464 626.239,792.631 625.5,792.5 Z" /><ns0:path style="opacity:0.004" fill="#000000" d="M 629.5,792.5 C 629.897,791.475 630.563,791.308 631.5,792C 630.906,792.464 630.239,792.631 629.5,792.5 Z" /><ns0:path style="opacity:0.004" fill="#000000" d="M 192.5,794.5 C 193.167,794.5 193.5,794.833 193.5,795.5C 192.922,796.547 192.256,796.38 191.5,795C 191.728,794.601 192.062,794.435 192.5,794.5 Z" /><ns0:path style="opacity:0.004" fill="#000000" d="M 621.5,795.5 C 620.761,795.631 620.094,795.464 619.5,795C 620.437,794.308 621.103,794.475 621.5,795.5 Z" /><ns0:path style="opacity:0.004" fill="#000000" d="M 623.5,794.5 C 624.833,795.167 624.833,795.167 623.5,794.5 Z" /><ns0:path style="opacity:0.004" fill="#000000" d="M 621.5,795.5 C 622.833,796.167 622.833,796.167 621.5,795.5 Z" /><ns0:path style="opacity:0.004" fill="#000000" d="M 194.5,798.5 C 193.833,797.167 193.833,797.167 194.5,798.5 Z" /><ns0:path style="opacity:0.004" fill="#000100" d="M 611.5,797.5 C 612.525,797.897 612.692,798.563 612,799.5C 611.536,798.906 611.369,798.239 611.5,797.5 Z" /><ns0:path style="opacity:0.004" fill="#000100" d="M 615.5,797.5 C 616.833,798.167 616.833,798.167 615.5,797.5 Z" /><ns0:path style="opacity:0.004" fill="#000000" d="M 194.5,798.5 C 195.833,799.167 195.833,799.167 194.5,798.5 Z" /><ns0:path style="opacity:0.008" fill="#000000" d="M 607.5,799.5 C 607.897,798.475 608.563,798.308 609.5,799C 608.906,799.464 608.239,799.631 607.5,799.5 Z" /><ns0:path style="opacity:0.004" fill="#000000" d="M 620.5,798.5 C 621.833,799.167 621.833,799.167 620.5,798.5 Z" /><ns0:path style="opacity:0.005" fill="#000000" d="M 123.5,799.5 C 123.577,800.75 124.244,801.583 125.5,802C 124.238,803.927 123.238,803.76 122.5,801.5C 122.328,800.508 122.662,799.842 123.5,799.5 Z" /><ns0:path style="opacity:0.004" fill="#000000" d="M 125.5,799.5 C 126.833,800.167 126.833,800.167 125.5,799.5 Z" /><ns0:path style="opacity:0.004" fill="#000000" d="M 126.5,805.5 C 127.833,806.167 127.833,806.167 126.5,805.5 Z" /><ns0:path style="opacity:0.004" fill="#000000" d="M 120.5,806.5 C 121.573,807.251 121.74,808.251 121,809.5C 120.517,808.552 120.351,807.552 120.5,806.5 Z" /><ns0:path style="opacity:0.004" fill="#010300" d="M 589.5,806.5 C 590.167,806.5 590.833,806.5 591.5,806.5C 590.833,807.833 590.167,807.833 589.5,806.5 Z" /><ns0:path style="opacity:0.004" fill="#000000" d="M 53.5,809.5 C 53.6716,810.492 53.3382,811.158 52.5,811.5C 52.0629,809.926 51.0629,808.759 49.5,808C 51.3524,807.227 52.6857,807.727 53.5,809.5 Z" /><ns0:path style="opacity:0.004" fill="#010101" d="M 587.5,809.5 C 588.525,809.897 588.692,810.563 588,811.5C 587.536,810.906 587.369,810.239 587.5,809.5 Z" /><ns0:path style="opacity:0.004" fill="#000000" d="M 126.5,810.5 C 127.833,811.167 127.833,811.167 126.5,810.5 Z" /><ns0:path style="opacity:0.004" fill="#010100" d="M 116.5,811.5 C 117.675,811.281 118.675,811.614 119.5,812.5C 118.606,812.517 117.606,812.851 116.5,813.5C 116.5,812.833 116.5,812.167 116.5,811.5 Z" /><ns0:path style="opacity:0.004" fill="#000000" d="M 124.5,812.5 C 125.573,813.251 125.74,814.251 125,815.5C 124.517,814.552 124.351,813.552 124.5,812.5 Z" /><ns0:path style="opacity:0.004" fill="#000000" d="M 584.5,812.5 C 586.233,813.008 586.566,813.841 585.5,815C 583.833,815.667 582.167,815.667 580.5,815C 582.437,814.878 583.77,814.045 584.5,812.5 Z" /><ns0:path style="opacity:0.005" fill="#000000" d="M 51.5,814.5 C 50.9744,816.23 49.9744,817.564 48.5,818.5C 48.8923,816.821 49.3923,815.154 50,813.5C 50.3826,814.056 50.8826,814.389 51.5,814.5 Z" /><ns0:path style="opacity:0.004" fill="#000000" d="M 126.5,813.5 C 127.525,813.897 127.692,814.563 127,815.5C 126.536,814.906 126.369,814.239 126.5,813.5 Z" /><ns0:path style="opacity:0.004" fill="#000000" d="M 229.5,813.5 C 231.337,813.639 231.67,814.306 230.5,815.5C 229.702,815.043 229.369,814.376 229.5,813.5 Z" /><ns0:path style="opacity:0.004" fill="#010001" d="M 572.5,813.5 C 573.679,815.409 573.346,815.742 571.5,814.5C 571.5,813.833 571.833,813.5 572.5,813.5 Z" /><ns0:path style="opacity:0.004" fill="#000000" d="M 587.5,814.5 C 588.601,813.402 589.934,813.235 591.5,814C 590.207,814.49 588.873,814.657 587.5,814.5 Z" /><ns0:path style="opacity:0.004" fill="#000000" d="M 121.5,814.5 C 122.833,815.167 122.833,815.167 121.5,814.5 Z" /><ns0:path style="opacity:0.004" fill="#000000" d="M 222.5,815.5 C 223.833,816.167 223.833,816.167 222.5,815.5 Z" /><ns0:path style="opacity:0.004" fill="#000000" d="M 542.5,823.5 C 543.833,824.167 543.833,824.167 542.5,823.5 Z" /><ns0:path style="opacity:0.005" fill="#010103" d="M 110.5,824.5 C 111.622,826.288 111.789,828.288 111,830.5C 110.59,829.099 110.09,827.766 109.5,826.5C 109.833,825.833 110.167,825.167 110.5,824.5 Z" /><ns0:path style="opacity:0.004" fill="#000000" d="M 536.5,827.5 C 537.251,826.427 538.251,826.26 539.5,827C 538.552,827.483 537.552,827.649 536.5,827.5 Z" /><ns0:path style="opacity:0.004" fill="#000100" d="M 533.5,829.5 C 532.833,828.167 532.833,828.167 533.5,829.5 Z" /><ns0:path style="opacity:0.006" fill="#000000" d="M 287.5,829.5 C 288.492,829.328 289.158,829.662 289.5,830.5C 288.033,833.258 287.367,832.925 287.5,829.5 Z" /><ns0:path style="opacity:0.004" fill="#000000" d="M 533.5,829.5 C 534.978,829.238 536.311,829.571 537.5,830.5C 535.969,831.421 534.635,831.088 533.5,829.5 Z" /><ns0:path style="opacity:0.005" fill="#000000" d="M 289.5,830.5 C 291.167,830.5 292.833,830.5 294.5,830.5C 293.469,831.249 292.302,831.915 291,832.5C 290.283,831.956 289.783,831.289 289.5,830.5 Z" /><ns0:path style="opacity:0.005" fill="#000000" d="M 34.5,831.5 C 36.337,831.639 36.6704,832.306 35.5,833.5C 34.7025,833.043 34.3691,832.376 34.5,831.5 Z" /><ns0:path style="opacity:0.004" fill="#000100" d="M 529.5,831.5 C 530.833,832.167 530.833,832.167 529.5,831.5 Z" /><ns0:path style="opacity:0.004" fill="#000000" d="M 539.5,831.5 C 540.833,832.167 540.833,832.167 539.5,831.5 Z" /><ns0:path style="opacity:0.004" fill="#000000" d="M 39.5,833.5 C 39.5,834.167 39.5,834.833 39.5,835.5C 36.8333,834.833 36.8333,834.167 39.5,833.5 Z" /><ns0:path style="opacity:0.004" fill="#000000" d="M 107.5,833.5 C 108.833,834.167 108.833,834.167 107.5,833.5 Z" /><ns0:path style="opacity:0.004" fill="#000001" d="M 109.5,833.5 C 112.001,833.511 112.168,834.178 110,835.5C 109.536,834.906 109.369,834.239 109.5,833.5 Z" /><ns0:path style="opacity:0.006" fill="#000100" d="M 505.5,833.5 C 504.508,835.026 503.008,835.693 501,835.5C 499.615,835.486 498.449,835.152 497.5,834.5C 500.237,834.599 502.904,834.265 505.5,833.5 Z" /><ns0:path style="opacity:0.004" fill="#010101" d="M 308.5,834.5 C 309.5,834.5 310.5,834.5 311.5,834.5C 310.5,835.833 309.5,835.833 308.5,834.5 Z" /><ns0:path style="opacity:0.004" fill="#000000" d="M 31.5,835.5 C 34.0009,835.511 34.1676,836.178 32,837.5C 31.5357,836.906 31.369,836.239 31.5,835.5 Z" /><ns0:path style="opacity:0.004" fill="#010100" d="M 106.5,835.5 C 107.595,838.717 107.429,842.05 106,845.5C 106.206,841.976 106.373,838.643 106.5,835.5 Z" /><ns0:path style="opacity:0.004" fill="#000000" d="M 108.5,837.5 C 109.251,836.427 110.251,836.26 111.5,837C 110.552,837.483 109.552,837.649 108.5,837.5 Z" /><ns0:path style="opacity:0.004" fill="#000000" d="M 37.5,837.5 C 37.5,837.833 37.5,838.167 37.5,838.5C 37.5,839.167 37.1667,839.5 36.5,839.5C 34.9689,838.075 35.3023,837.409 37.5,837.5 Z" /><ns0:path style="opacity:0.005" fill="#000102" d="M 33.5,846.5 C 33.5,847.167 33.1667,847.5 32.5,847.5C 31.2072,845.636 31.2072,843.636 32.5,841.5C 32.5951,843.215 32.9284,844.881 33.5,846.5 Z" /><ns0:path style="opacity:0.004" fill="#000002" d="M 109.5,842.5 C 110.833,843.167 110.833,843.167 109.5,842.5 Z" /><ns0:path style="opacity:0.004" fill="#000000" d="M 107.5,847.5 C 107.351,846.448 107.517,845.448 108,844.5C 108.74,845.749 108.573,846.749 107.5,847.5 Z" /><ns0:path style="opacity:0.004" fill="#000000" d="M 406.5,844.5 C 406.833,844.5 407.167,844.5 407.5,844.5C 409.048,844.821 409.715,845.821 409.5,847.5C 408.448,847.649 407.448,847.483 406.5,847C 407.598,846.23 407.598,845.397 406.5,844.5 Z" /><ns0:path style="opacity:0.004" fill="#000000" d="M 335.5,846.5 C 345.992,845.341 356.659,845.175 367.5,846C 356.839,846.5 346.172,846.667 335.5,846.5 Z" /><ns0:path style="opacity:0.004" fill="#000000" d="M 107.5,847.5 C 107.672,848.492 107.338,849.158 106.5,849.5C 106.328,848.508 106.662,847.842 107.5,847.5 Z" /><ns0:path style="opacity:0.004" fill="#000002" d="M 106.5,849.5 C 106.672,850.492 106.338,851.158 105.5,851.5C 105.328,850.508 105.662,849.842 106.5,849.5 Z" /><ns0:path style="opacity:0.004" fill="#000002" d="M 105.5,851.5 C 105.672,852.492 105.338,853.158 104.5,853.5C 104.328,852.508 104.662,851.842 105.5,851.5 Z" /><ns0:path style="opacity:0.004" fill="#000001" d="M 104.5,853.5 C 104.672,854.492 104.338,855.158 103.5,855.5C 103.328,854.508 103.662,853.842 104.5,853.5 Z" /><ns0:path style="opacity:0.004" fill="#010100" d="M 29.5,854.5 C 28.8902,855.391 28.5569,856.391 28.5,857.5C 27.1148,856.053 27.4482,855.053 29.5,854.5 Z" /><ns0:path style="opacity:0.004" fill="#000000" d="M 103.5,855.5 C 103.672,856.492 103.338,857.158 102.5,857.5C 102.328,856.508 102.662,855.842 103.5,855.5 Z" /><ns0:path style="opacity:0.004" fill="#000000" d="M 102.5,857.5 C 102.672,858.492 102.338,859.158 101.5,859.5C 101.328,858.508 101.662,857.842 102.5,857.5 Z" /><ns0:path style="opacity:0.004" fill="#000000" d="M 101.5,859.5 C 101.672,860.492 101.338,861.158 100.5,861.5C 100.328,860.508 100.662,859.842 101.5,859.5 Z" /><ns0:path style="opacity:0.004" fill="#000000" d="M 100.5,861.5 C 100.483,863.028 99.816,863.528 98.5,863C 99.0442,862.283 99.7109,861.783 100.5,861.5 Z" /><ns0:path style="opacity:0.004" fill="#000100" d="M 94.5,864.5 C 95.0768,863.227 95.7435,863.227 96.5,864.5C 96.0302,865.463 95.3635,865.463 94.5,864.5 Z" /><ns0:path style="opacity:0.004" fill="#000000" d="M 17.5,867.5 C 18.0768,866.227 18.7435,866.227 19.5,867.5C 19.0302,868.463 18.3635,868.463 17.5,867.5 Z" /><ns0:path style="opacity:0.004" fill="#000000" d="M 95.5,872.5 C 93.5354,872.052 93.2021,871.052 94.5,869.5C 95.3857,870.325 95.719,871.325 95.5,872.5 Z" /><ns0:path style="opacity:0.004" fill="#010000" d="M 16.5,870.5 C 17.5735,871.251 17.7401,872.251 17,873.5C 16.5172,872.552 16.3505,871.552 16.5,870.5 Z" /><ns0:path style="opacity:0.004" fill="#000200" d="M 19.5,871.5 C 20.525,871.897 20.6917,872.563 20,873.5C 19.5357,872.906 19.369,872.239 19.5,871.5 Z" /><ns0:path style="opacity:0.004" fill="#000000" d="M 95.5,872.5 C 96.8333,873.167 96.8333,873.167 95.5,872.5 Z" /><ns0:path style="opacity:0.004" fill="#000000" d="M 90.5,873.5 C 91.9778,873.238 93.3112,873.571 94.5,874.5C 94.0623,875.506 93.3957,875.506 92.5,874.5C 91.0133,879.657 90.3466,879.324 90.5,873.5 Z" /><ns0:path style="opacity:0.004" fill="#010300" d="M 19.5,877.5 C 18.8333,876.167 18.8333,876.167 19.5,877.5 Z" /><ns0:path style="opacity:0.004" fill="#010101" d="M 88.5,876.5 C 89.5735,877.251 89.7401,878.251 89,879.5C 88.5172,878.552 88.3505,877.552 88.5,876.5 Z" /><ns0:path style="opacity:0.004" fill="#000000" d="M 93.5,877.5 C 94.8333,878.167 94.8333,878.167 93.5,877.5 Z" /><ns0:path style="opacity:0.005" fill="#000200" d="M 17.5,879.5 C 17.5,880.167 17.5,880.833 17.5,881.5C 14.8333,880.833 14.8333,880.167 17.5,879.5 Z" /><ns0:path style="opacity:0.004" fill="#000000" d="M 87.5,882.5 C 88.8333,883.167 88.8333,883.167 87.5,882.5 Z" /><ns0:path style="opacity:0.005" fill="#000000" d="M 0.5,896.5 C 1.25057,895.427 2.25057,895.26 3.5,896C 2.55198,896.483 1.55198,896.649 0.5,896.5 Z" /><ns0:path style="opacity:0.004" fill="#000100" d="M 7.5,895.5 C 9.76023,896.238 9.9269,897.238 8,898.5C 7.51722,897.552 7.35055,896.552 7.5,895.5 Z" /><ns0:path style="opacity:0.004" fill="#000000" d="M -0.5,898.5 C 0.833333,899.167 0.833333,899.167 -0.5,898.5 Z" /><ns0:path style="opacity:0.004" fill="#000000" d="M 7.5,902.5 C 7.5,902.833 7.5,903.167 7.5,903.5C 5.77484,903.157 5.27484,902.157 6,900.5C 6.27842,901.416 6.77842,902.082 7.5,902.5 Z" /><ns0:path style="opacity:0.004" fill="#010403" d="M 76.5,899.5 C 78.9327,900.548 78.9327,901.214 76.5,901.5C 76.5,900.833 76.5,900.167 76.5,899.5 Z" /><ns0:path style="opacity:0.004" fill="#000000" d="M -0.5,903.5 C -0.5,903.167 -0.5,902.833 -0.5,902.5C 0.766616,901.913 1.76662,901.913 2.5,902.5C 1.67504,903.386 0.675044,903.719 -0.5,903.5 Z" /><ns0:path style="opacity:0.004" fill="#000000" d="M 75.5,903.5 C 76.3764,903.369 77.0431,903.702 77.5,904.5C 76.3864,905.776 75.3864,905.776 74.5,904.5C 74.5,903.833 74.8333,903.5 75.5,903.5 Z" /><ns0:path style="opacity:0.004" fill="#020302" d="M 4.5,906.5 C 3.83333,905.167 3.83333,905.167 4.5,906.5 Z" /><ns0:path style="opacity:0.004" fill="#000000" d="M 0.5,906.5 C 1.83333,907.167 1.83333,907.167 0.5,906.5 Z" /><ns0:path style="opacity:0.005" fill="#000000" d="M 74.5,907.5 C 76.0878,908.635 76.4212,909.969 75.5,911.5C 74.5713,910.311 74.238,908.978 74.5,907.5 Z" /><ns0:path style="opacity:0.004" fill="#000000" d="M 77.5,908.5 C 77.8966,907.475 78.5632,907.308 79.5,908C 78.9056,908.464 78.2389,908.631 77.5,908.5 Z" /><ns0:path style="opacity:0.004" fill="#000000" d="M 1.5,910.5 C 2.83333,911.167 2.83333,911.167 1.5,910.5 Z" /><ns0:path style="opacity:0.006" fill="#000100" d="M 1.5,911.5 C 1.84316,913.483 1.17649,914.817 -0.5,915.5C -0.5,915.167 -0.5,914.833 -0.5,914.5C 0.166667,913.5 0.833333,912.5 1.5,911.5 Z" /><ns0:path style="opacity:0.004" fill="#000000" d="M 66.5,935.5 C 67.8333,936.167 67.8333,936.167 66.5,935.5 Z" /><ns0:path style="opacity:0.004" fill="#000000" d="M 65.5,936.5 C 65.8333,936.5 66.1667,936.5 66.5,936.5C 66.3147,937.17 65.9813,937.17 65.5,936.5 Z" /></svg>